<svg width="81" height="23" viewBox="0 0 81 23" fill="none" xmlns="http://www.w3.org/2000/svg">
<path d="M0.678001 22V0.90909H13.4067V3.17472H3.23198V10.3011H12.7476V12.5668H3.23198V19.7344H13.5715V22H0.678001ZM20.1109 12.4844V22H17.6805V6.18182H20.0285V8.65341H20.2345C20.6052 7.85014 21.1682 7.20478 21.9234 6.71733C22.6786 6.22301 23.6535 5.97585 24.8481 5.97585C25.9191 5.97585 26.8563 6.19555 27.6595 6.63494C28.4628 7.06747 29.0876 7.72656 29.5338 8.61222C29.9801 9.491 30.2032 10.6032 30.2032 11.9489V22H27.7728V12.1136C27.7728 10.871 27.4501 9.90294 26.8048 9.20952C26.1594 8.50923 25.2738 8.15909 24.1478 8.15909C23.372 8.15909 22.6786 8.3273 22.0676 8.66371C21.4634 9.00012 20.9862 9.491 20.6361 10.1364C20.286 10.7817 20.1109 11.5644 20.1109 12.4844ZM41.5236 6.18182V8.24148H33.3262V6.18182H41.5236ZM35.7154 2.39205H38.1458V17.4688C38.1458 18.1553 38.2453 18.6702 38.4444 19.0135C38.6504 19.3499 38.9113 19.5765 39.2271 19.6932C39.5498 19.803 39.8896 19.858 40.2466 19.858C40.5144 19.858 40.7341 19.8442 40.9057 19.8168C41.0774 19.7824 41.2147 19.755 41.3176 19.7344L41.812 21.9176C41.6472 21.9794 41.4172 22.0412 41.122 22.103C40.8268 22.1716 40.4526 22.206 39.9995 22.206C39.3129 22.206 38.6401 22.0584 37.981 21.7631C37.3288 21.4679 36.7864 21.0182 36.3539 20.4141C35.9282 19.8099 35.7154 19.0478 35.7154 18.1278V2.39205ZM45.1795 22V6.18182H47.5275V8.57102H47.6923C47.9806 7.78835 48.5024 7.15329 49.2576 6.66584C50.0128 6.17838 50.8642 5.93466 51.8116 5.93466C51.9901 5.93466 52.2132 5.93809 52.481 5.94496C52.7488 5.95182 52.9513 5.96212 53.0886 5.97585V8.44744C53.0062 8.42685 52.8174 8.39595 52.5222 8.35476C52.2338 8.3067 51.9283 8.28267 51.6056 8.28267C50.8367 8.28267 50.1502 8.44401 49.546 8.76669C48.9487 9.0825 48.475 9.5219 48.1248 10.0849C47.7815 10.641 47.6099 11.276 47.6099 11.9901V22H45.1795ZM60.6244 22.3707C59.622 22.3707 58.7123 22.1819 57.8953 21.8043C57.0783 21.4199 56.4295 20.8672 55.949 20.1463C55.4684 19.4186 55.2281 18.5398 55.2281 17.5099C55.2281 16.6037 55.4066 15.8691 55.7636 15.3061C56.1206 14.7363 56.5977 14.29 57.195 13.9673C57.7923 13.6446 58.4514 13.4044 59.1723 13.2464C59.9001 13.0817 60.6312 12.9512 61.3659 12.8551C62.327 12.7315 63.1063 12.6388 63.7036 12.5771C64.3077 12.5084 64.7471 12.3951 65.0218 12.2372C65.3032 12.0793 65.444 11.8047 65.444 11.4134V11.331C65.444 10.3149 65.1659 9.52533 64.6098 8.96236C64.0606 8.39938 63.2264 8.1179 62.1073 8.1179C60.9471 8.1179 60.0374 8.37192 59.3783 8.87997C58.7192 9.38802 58.2558 9.9304 57.988 10.5071L55.6812 9.68324C56.0931 8.72206 56.6424 7.97372 57.3289 7.43821C58.0223 6.89583 58.7776 6.51823 59.5945 6.3054C60.4184 6.0857 61.2285 5.97585 62.0249 5.97585C62.533 5.97585 63.1166 6.03764 63.7757 6.16122C64.4416 6.27793 65.0835 6.52166 65.7014 6.8924C66.3262 7.26314 66.8445 7.82268 67.2565 8.57102C67.6684 9.31937 67.8744 10.3217 67.8744 11.5781V22H65.444V19.858H65.3204C65.1556 20.2012 64.881 20.5685 64.4965 20.9599C64.1121 21.3512 63.6006 21.6842 62.9621 21.9588C62.3236 22.2334 61.5444 22.3707 60.6244 22.3707ZM60.9951 20.1875C61.9563 20.1875 62.7664 19.9987 63.4255 19.6211C64.0915 19.2435 64.5927 18.756 64.9291 18.1587C65.2723 17.5614 65.444 16.9332 65.444 16.2741V14.0497C65.341 14.1733 65.1144 14.2866 64.7643 14.3896C64.421 14.4857 64.0228 14.5715 63.5697 14.647C63.1234 14.7157 62.6875 14.7775 62.2618 14.8324C61.843 14.8804 61.5032 14.9216 61.2423 14.956C60.6106 15.0384 60.0202 15.1722 59.471 15.3576C58.9286 15.5361 58.4892 15.8073 58.1528 16.1712C57.8232 16.5282 57.6585 17.0156 57.6585 17.6335C57.6585 18.478 57.9709 19.1165 58.5956 19.549C59.2272 19.9747 60.0271 20.1875 60.9951 20.1875ZM72.3104 22V6.18182H74.6584V8.57102H74.8232C75.1115 7.78835 75.6333 7.15329 76.3885 6.66584C77.1437 6.17838 77.995 5.93466 78.9425 5.93466C79.121 5.93466 79.3441 5.93809 79.6119 5.94496C79.8796 5.95182 80.0822 5.96212 80.2195 5.97585V8.44744C80.1371 8.42685 79.9483 8.39595 79.6531 8.35476C79.3647 8.3067 79.0592 8.28267 78.7365 8.28267C77.9676 8.28267 77.281 8.44401 76.6768 8.76669C76.0795 9.0825 75.6058 9.5219 75.2557 10.0849C74.9124 10.641 74.7408 11.276 74.7408 11.9901V22H72.3104Z" fill="white"/>
</svg>
